<mxfile host="app.diagrams.net" modified="2022-06-27T15:25:45.569Z" agent="5.0 (Windows NT 10.0; Win64; x64) AppleWebKit/537.36 (KHTML, like Gecko) Chrome/103.0.5060.53 Safari/537.36 Edg/103.0.1264.37" etag="E5WiFPZaVgdSwoCWFo-l" version="20.0.3" type="github">
  <diagram name="Page-1" id="74e2e168-ea6b-b213-b513-2b3c1d86103e">
    <mxGraphModel dx="2138" dy="547" grid="1" gridSize="10" guides="1" tooltips="1" connect="1" arrows="1" fold="1" page="1" pageScale="1" pageWidth="1100" pageHeight="850" background="none" math="0" shadow="0">
      <root>
        <mxCell id="0" />
        <mxCell id="1" parent="0" />
        <mxCell id="dkneOuPwnhS5p_DpT9uo-13" value="接收下行请求" style="rounded=1;whiteSpace=wrap;html=1;" parent="1" vertex="1">
          <mxGeometry x="260" y="380" width="120" height="60" as="geometry" />
        </mxCell>
        <mxCell id="dkneOuPwnhS5p_DpT9uo-14" value="" style="endArrow=none;html=1;rounded=0;" parent="1" edge="1">
          <mxGeometry width="50" height="50" relative="1" as="geometry">
            <mxPoint x="160" y="570" as="sourcePoint" />
            <mxPoint x="810" y="570" as="targetPoint" />
          </mxGeometry>
        </mxCell>
        <mxCell id="dkneOuPwnhS5p_DpT9uo-15" value="应用层" style="text;html=1;align=center;verticalAlign=middle;resizable=0;points=[];autosize=1;strokeColor=none;fillColor=none;" parent="1" vertex="1">
          <mxGeometry x="160" y="360" width="50" height="20" as="geometry" />
        </mxCell>
        <mxCell id="dkneOuPwnhS5p_DpT9uo-16" value="" style="endArrow=none;html=1;rounded=0;" parent="1" edge="1">
          <mxGeometry width="50" height="50" relative="1" as="geometry">
            <mxPoint x="160" y="350" as="sourcePoint" />
            <mxPoint x="810" y="350" as="targetPoint" />
          </mxGeometry>
        </mxCell>
        <mxCell id="dkneOuPwnhS5p_DpT9uo-17" value="tcp链路层" style="text;html=1;align=center;verticalAlign=middle;resizable=0;points=[];autosize=1;strokeColor=none;fillColor=none;" parent="1" vertex="1">
          <mxGeometry x="160" y="585" width="70" height="20" as="geometry" />
        </mxCell>
        <mxCell id="dkneOuPwnhS5p_DpT9uo-18" value="mqtt链路层" style="text;html=1;align=center;verticalAlign=middle;resizable=0;points=[];autosize=1;strokeColor=none;fillColor=none;" parent="1" vertex="1">
          <mxGeometry x="150" y="220" width="70" height="20" as="geometry" />
        </mxCell>
        <mxCell id="dkneOuPwnhS5p_DpT9uo-24" style="edgeStyle=orthogonalEdgeStyle;rounded=0;orthogonalLoop=1;jettySize=auto;html=1;entryX=0;entryY=0;entryDx=0;entryDy=0;" parent="1" source="dkneOuPwnhS5p_DpT9uo-19" target="dkneOuPwnhS5p_DpT9uo-23" edge="1">
          <mxGeometry relative="1" as="geometry" />
        </mxCell>
        <mxCell id="dkneOuPwnhS5p_DpT9uo-19" value="接收订阅" style="rounded=1;whiteSpace=wrap;html=1;" parent="1" vertex="1">
          <mxGeometry x="260" y="110" width="120" height="60" as="geometry" />
        </mxCell>
        <mxCell id="dkneOuPwnhS5p_DpT9uo-25" style="edgeStyle=orthogonalEdgeStyle;rounded=0;orthogonalLoop=1;jettySize=auto;html=1;entryX=1;entryY=0.5;entryDx=0;entryDy=0;exitX=0;exitY=1;exitDx=0;exitDy=0;" parent="1" source="dkneOuPwnhS5p_DpT9uo-23" target="dkneOuPwnhS5p_DpT9uo-20" edge="1">
          <mxGeometry relative="1" as="geometry">
            <mxPoint x="420" y="280" as="sourcePoint" />
            <Array as="points">
              <mxPoint x="420" y="228" />
              <mxPoint x="420" y="260" />
            </Array>
          </mxGeometry>
        </mxCell>
        <mxCell id="dkneOuPwnhS5p_DpT9uo-20" value="mqtt请求" style="shape=parallelogram;perimeter=parallelogramPerimeter;whiteSpace=wrap;html=1;fixedSize=1;fillColor=#dae8fc;strokeColor=#6c8ebf;" parent="1" vertex="1">
          <mxGeometry x="260" y="230" width="120" height="60" as="geometry" />
        </mxCell>
        <mxCell id="dkneOuPwnhS5p_DpT9uo-43" style="edgeStyle=orthogonalEdgeStyle;rounded=0;orthogonalLoop=1;jettySize=auto;html=1;entryX=1;entryY=1;entryDx=0;entryDy=0;exitX=0;exitY=0.5;exitDx=0;exitDy=0;" parent="1" source="dkneOuPwnhS5p_DpT9uo-40" target="dkneOuPwnhS5p_DpT9uo-23" edge="1">
          <mxGeometry relative="1" as="geometry">
            <mxPoint x="610" y="260" as="sourcePoint" />
          </mxGeometry>
        </mxCell>
        <mxCell id="dkneOuPwnhS5p_DpT9uo-28" style="edgeStyle=orthogonalEdgeStyle;rounded=0;orthogonalLoop=1;jettySize=auto;html=1;entryX=0.5;entryY=0;entryDx=0;entryDy=0;exitX=0.5;exitY=1;exitDx=0;exitDy=0;" parent="1" source="dkneOuPwnhS5p_DpT9uo-20" target="dkneOuPwnhS5p_DpT9uo-13" edge="1">
          <mxGeometry relative="1" as="geometry">
            <Array as="points">
              <mxPoint x="320" y="300" />
              <mxPoint x="320" y="300" />
            </Array>
          </mxGeometry>
        </mxCell>
        <mxCell id="dkneOuPwnhS5p_DpT9uo-44" style="edgeStyle=orthogonalEdgeStyle;rounded=0;orthogonalLoop=1;jettySize=auto;html=1;entryX=0;entryY=0.5;entryDx=0;entryDy=0;exitX=1;exitY=0;exitDx=0;exitDy=0;" parent="1" source="dkneOuPwnhS5p_DpT9uo-23" target="hd8WvTRlU5QdLkVc9hPx-4" edge="1">
          <mxGeometry relative="1" as="geometry">
            <mxPoint x="620" y="140" as="targetPoint" />
          </mxGeometry>
        </mxCell>
        <mxCell id="dkneOuPwnhS5p_DpT9uo-23" value="逻辑处理1" style="ellipse;whiteSpace=wrap;html=1;aspect=fixed;" parent="1" vertex="1">
          <mxGeometry x="450" y="160" width="80" height="80" as="geometry" />
        </mxCell>
        <mxCell id="dkneOuPwnhS5p_DpT9uo-30" style="edgeStyle=orthogonalEdgeStyle;rounded=0;orthogonalLoop=1;jettySize=auto;html=1;entryX=0;entryY=0;entryDx=0;entryDy=0;exitX=1;exitY=0.5;exitDx=0;exitDy=0;" parent="1" source="dkneOuPwnhS5p_DpT9uo-13" target="dkneOuPwnhS5p_DpT9uo-27" edge="1">
          <mxGeometry relative="1" as="geometry" />
        </mxCell>
        <mxCell id="dkneOuPwnhS5p_DpT9uo-34" style="edgeStyle=orthogonalEdgeStyle;rounded=0;orthogonalLoop=1;jettySize=auto;html=1;exitX=0;exitY=1;exitDx=0;exitDy=0;entryX=0.5;entryY=0;entryDx=0;entryDy=0;" parent="1" source="dkneOuPwnhS5p_DpT9uo-27" target="dkneOuPwnhS5p_DpT9uo-31" edge="1">
          <mxGeometry relative="1" as="geometry">
            <Array as="points">
              <mxPoint x="320" y="498" />
            </Array>
          </mxGeometry>
        </mxCell>
        <mxCell id="dkneOuPwnhS5p_DpT9uo-41" style="edgeStyle=orthogonalEdgeStyle;rounded=0;orthogonalLoop=1;jettySize=auto;html=1;exitX=1;exitY=0;exitDx=0;exitDy=0;" parent="1" source="dkneOuPwnhS5p_DpT9uo-27" target="dkneOuPwnhS5p_DpT9uo-40" edge="1">
          <mxGeometry relative="1" as="geometry" />
        </mxCell>
        <mxCell id="dkneOuPwnhS5p_DpT9uo-27" value="逻辑处理2" style="ellipse;whiteSpace=wrap;html=1;aspect=fixed;" parent="1" vertex="1">
          <mxGeometry x="450" y="430" width="80" height="80" as="geometry" />
        </mxCell>
        <mxCell id="dkneOuPwnhS5p_DpT9uo-31" value="下行tk_modbus" style="shape=parallelogram;perimeter=parallelogramPerimeter;whiteSpace=wrap;html=1;fixedSize=1;fillColor=#d5e8d4;strokeColor=#82b366;" parent="1" vertex="1">
          <mxGeometry x="240" y="650" width="160" height="60" as="geometry" />
        </mxCell>
        <mxCell id="dkneOuPwnhS5p_DpT9uo-36" style="edgeStyle=orthogonalEdgeStyle;rounded=0;orthogonalLoop=1;jettySize=auto;html=1;" parent="1" source="dkneOuPwnhS5p_DpT9uo-33" edge="1">
          <mxGeometry relative="1" as="geometry">
            <mxPoint x="670" y="545" as="targetPoint" />
          </mxGeometry>
        </mxCell>
        <mxCell id="dkneOuPwnhS5p_DpT9uo-33" value="上行tk_modbus" style="shape=parallelogram;perimeter=parallelogramPerimeter;whiteSpace=wrap;html=1;fixedSize=1;fillColor=#d5e8d4;strokeColor=#82b366;" parent="1" vertex="1">
          <mxGeometry x="600" y="650" width="140" height="60" as="geometry" />
        </mxCell>
        <mxCell id="dkneOuPwnhS5p_DpT9uo-39" style="edgeStyle=orthogonalEdgeStyle;rounded=0;orthogonalLoop=1;jettySize=auto;html=1;entryX=1;entryY=1;entryDx=0;entryDy=0;" parent="1" source="dkneOuPwnhS5p_DpT9uo-38" target="dkneOuPwnhS5p_DpT9uo-27" edge="1">
          <mxGeometry relative="1" as="geometry" />
        </mxCell>
        <mxCell id="dkneOuPwnhS5p_DpT9uo-38" value="接收上行应答" style="rounded=1;whiteSpace=wrap;html=1;" parent="1" vertex="1">
          <mxGeometry x="610" y="485" width="120" height="60" as="geometry" />
        </mxCell>
        <mxCell id="dkneOuPwnhS5p_DpT9uo-40" value="mqtt应答" style="shape=parallelogram;perimeter=parallelogramPerimeter;whiteSpace=wrap;html=1;fixedSize=1;fillColor=#dae8fc;strokeColor=#6c8ebf;" parent="1" vertex="1">
          <mxGeometry x="610" y="230" width="120" height="60" as="geometry" />
        </mxCell>
        <mxCell id="dkneOuPwnhS5p_DpT9uo-46" style="edgeStyle=orthogonalEdgeStyle;rounded=0;orthogonalLoop=1;jettySize=auto;html=1;entryX=0.5;entryY=1;entryDx=0;entryDy=0;" parent="1" source="dkneOuPwnhS5p_DpT9uo-45" target="dkneOuPwnhS5p_DpT9uo-31" edge="1">
          <mxGeometry relative="1" as="geometry" />
        </mxCell>
        <mxCell id="dkneOuPwnhS5p_DpT9uo-47" style="edgeStyle=orthogonalEdgeStyle;rounded=0;orthogonalLoop=1;jettySize=auto;html=1;entryX=0.5;entryY=1;entryDx=0;entryDy=0;" parent="1" source="dkneOuPwnhS5p_DpT9uo-45" target="dkneOuPwnhS5p_DpT9uo-33" edge="1">
          <mxGeometry relative="1" as="geometry" />
        </mxCell>
        <mxCell id="hd8WvTRlU5QdLkVc9hPx-2" style="edgeStyle=orthogonalEdgeStyle;rounded=0;orthogonalLoop=1;jettySize=auto;html=1;entryX=1;entryY=0.5;entryDx=0;entryDy=0;" parent="1" source="dkneOuPwnhS5p_DpT9uo-45" target="dkneOuPwnhS5p_DpT9uo-40" edge="1">
          <mxGeometry relative="1" as="geometry">
            <mxPoint x="840" y="710" as="targetPoint" />
            <Array as="points">
              <mxPoint x="870" y="810" />
              <mxPoint x="870" y="260" />
            </Array>
          </mxGeometry>
        </mxCell>
        <mxCell id="dkneOuPwnhS5p_DpT9uo-45" value="链路层通信单元" style="rounded=1;whiteSpace=wrap;html=1;" parent="1" vertex="1">
          <mxGeometry x="440" y="780" width="120" height="60" as="geometry" />
        </mxCell>
        <mxCell id="dkneOuPwnhS5p_DpT9uo-51" value="内部mqtt协议" style="rounded=1;whiteSpace=wrap;html=1;strokeWidth=2;fillWeight=4;hachureGap=8;hachureAngle=45;fillColor=#d5e8d4;sketch=1;strokeColor=#82b366;" parent="1" vertex="1">
          <mxGeometry x="974" y="150" width="120" height="60" as="geometry" />
        </mxCell>
        <mxCell id="dkneOuPwnhS5p_DpT9uo-52" value="通科邮箱协议" style="rounded=1;whiteSpace=wrap;html=1;strokeWidth=2;fillWeight=4;hachureGap=8;hachureAngle=45;fillColor=#d5e8d4;sketch=1;strokeColor=#82b366;" parent="1" vertex="1">
          <mxGeometry x="974" y="410" width="120" height="60" as="geometry" />
        </mxCell>
        <mxCell id="dkneOuPwnhS5p_DpT9uo-53" value="通科中间件协议" style="rounded=1;whiteSpace=wrap;html=1;strokeWidth=2;fillWeight=4;hachureGap=8;hachureAngle=45;fillColor=#d5e8d4;sketch=1;strokeColor=#82b366;" parent="1" vertex="1">
          <mxGeometry x="974" y="680" width="120" height="60" as="geometry" />
        </mxCell>
        <mxCell id="hd8WvTRlU5QdLkVc9hPx-4" value="推送发布" style="rounded=1;whiteSpace=wrap;html=1;" parent="1" vertex="1">
          <mxGeometry x="610" y="110" width="120" height="60" as="geometry" />
        </mxCell>
        <mxCell id="yrOie3cFXsgSP7xj6JYT-3" value="&lt;span style=&quot;&quot;&gt;逻辑处理1：&lt;/span&gt;&lt;br style=&quot;&quot;&gt;&lt;span style=&quot;&quot;&gt;1、解析TopoApp的下行mqtt请求，存入mqtt请求队列，供逻辑2使用&lt;/span&gt;&lt;br style=&quot;&quot;&gt;&lt;span style=&quot;&quot;&gt;2、解析tk载波邮箱服务返回的mqtt应答及中间件服务返回的mqtt应答，&lt;/span&gt;&lt;span style=&quot;&quot;&gt;组应答帧推送至TopoApp&lt;/span&gt;" style="rounded=0;whiteSpace=wrap;html=1;labelBackgroundColor=#47FFF9;labelBorderColor=default;align=left;" vertex="1" parent="1">
          <mxGeometry x="-230" y="200" width="370" height="70" as="geometry" />
        </mxCell>
        <mxCell id="yrOie3cFXsgSP7xj6JYT-4" value="&lt;span style=&quot;&quot;&gt;逻辑处理2：&lt;/span&gt;&lt;br style=&quot;&quot;&gt;&lt;span style=&quot;&quot;&gt;1、pop mqtt请求队列，组帧tk载波邮箱协议，存入下行tk_modbus队列，供逻辑3使用&lt;/span&gt;&lt;br style=&quot;&quot;&gt;&lt;span style=&quot;&quot;&gt;2、解析中间件服务返回的tk载波邮箱协议应答包，根据应答数据，组帧存入mqtt应答队列，供逻辑1使用&lt;/span&gt;" style="rounded=0;whiteSpace=wrap;html=1;labelBackgroundColor=#47FFF9;labelBorderColor=default;align=left;" vertex="1" parent="1">
          <mxGeometry x="-230" y="430" width="370" height="70" as="geometry" />
        </mxCell>
        <mxCell id="yrOie3cFXsgSP7xj6JYT-5" value="&lt;span style=&quot;&quot;&gt;逻辑处理3:&lt;br&gt;1、pop 载波邮箱协议的下行tk_modbus队列，根据中间件通信协议组帧发送至中间件&lt;br&gt;2、接收中间件的返回报文，解析数据，命令报文则直接存入mqtt应答队列，业务数据则解析至上行tk_modbus队列，供逻辑2处理&lt;br&gt;&lt;/span&gt;" style="rounded=0;whiteSpace=wrap;html=1;labelBackgroundColor=#47FFF9;labelBorderColor=default;align=left;" vertex="1" parent="1">
          <mxGeometry x="-230" y="680" width="370" height="70" as="geometry" />
        </mxCell>
      </root>
    </mxGraphModel>
  </diagram>
</mxfile>
